<?xml version="1.0" encoding="UTF-8" standalone="no"?>
<!-- Created with Inkscape (http://www.inkscape.org/) -->

<svg
   xmlns:dc="http://purl.org/dc/elements/1.1/"
   xmlns:cc="http://creativecommons.org/ns#"
   xmlns:rdf="http://www.w3.org/1999/02/22-rdf-syntax-ns#"
   xmlns:svg="http://www.w3.org/2000/svg"
   xmlns="http://www.w3.org/2000/svg"
   xmlns:sodipodi="http://sodipodi.sourceforge.net/DTD/sodipodi-0.dtd"
   xmlns:inkscape="http://www.inkscape.org/namespaces/inkscape"
   width="40"
   height="30"
   viewBox="0 0 40 30"
   id="svg2"
   version="1.1"
   inkscape:version="0.91 r13725"
   sodipodi:docname="edit.svg">
  <defs
     id="defs4" />
  <sodipodi:namedview
     id="base"
     pagecolor="#ffffff"
     bordercolor="#666666"
     borderopacity="1.0"
     inkscape:pageopacity="0.0"
     inkscape:pageshadow="2"
     inkscape:zoom="10.311841"
     inkscape:cx="10.342546"
     inkscape:cy="16.520199"
     inkscape:document-units="px"
     inkscape:current-layer="svg2"
     showgrid="true"
     units="px"
     inkscape:window-width="1427"
     inkscape:window-height="841"
     inkscape:window-x="101"
     inkscape:window-y="-8"
     inkscape:window-maximized="1">
    <inkscape:grid
       type="xygrid"
       id="grid3354" />
  </sodipodi:namedview>
  <metadata
     id="metadata7">
    <rdf:RDF>
      <cc:Work
         rdf:about="">
        <dc:format>image/svg+xml</dc:format>
        <dc:type
           rdf:resource="http://purl.org/dc/dcmitype/StillImage" />
        <dc:title></dc:title>
      </cc:Work>
    </rdf:RDF>
  </metadata>
  <path
     id="path4134"
     style="fill:#000000;fill-opacity:1;fill-rule:evenodd;stroke:none;stroke-width:1px;stroke-linecap:butt;stroke-linejoin:miter;stroke-opacity:1"
     d="M 30.85,10.65 19.56,21.95 19.56,21.95 16.96,19.34 28.25,8.05 30.85,10.65 30.85,10.65 Z M 31.56,9.94 33.29,8.21 C 33.68,7.82 33.67,7.19 33.28,6.8 L 32.1,5.62 C 31.71,5.23 31.08,5.22 30.68,5.62 L 28.96,7.34 31.56,9.94 31.56,9.94 Z M 16.31,20.11 15.67,23.22 18.81,22.61 16.31,20.11 16.31,20.11 16.31,20.11 Z M 26.41,16.5 26.41,26.5 C 26.41,27.61 25.51,28.5 24.41,28.5 L 9.4,28.5 C 8.3,28.5 7.41,27.6 7.41,26.49 L 7.41,3.51 C 7.41,2.4 8.31,1.5 9.41,1.5 L 19.41,1.5 19.41,7.5 C 19.41,8.61 20.3,9.5 21.41,9.5 L 25.41,9.5 29.99,4.92 C 30.78,4.13 32.04,4.13 32.82,4.91 L 34,6.09 C 34.77,6.87 34.77,8.14 33.99,8.92 L 26.41,16.5 26.41,16.5 Z M 20.41,1.5 20.41,7.5 C 20.41,8.05 20.86,8.5 21.4,8.5 L 26.41,8.5 20.41,1.5 20.41,1.5 Z"
     inkscape:connector-curvature="0" />
</svg>
