<?xml version="1.0" encoding="UTF-8" standalone="no"?>
<!-- Created with Inkscape (http://www.inkscape.org/) -->

<svg
   xmlns:dc="http://purl.org/dc/elements/1.1/"
   xmlns:cc="http://creativecommons.org/ns#"
   xmlns:rdf="http://www.w3.org/1999/02/22-rdf-syntax-ns#"
   xmlns:svg="http://www.w3.org/2000/svg"
   xmlns="http://www.w3.org/2000/svg"
   xmlns:sodipodi="http://sodipodi.sourceforge.net/DTD/sodipodi-0.dtd"
   xmlns:inkscape="http://www.inkscape.org/namespaces/inkscape"
   width="40"
   height="30"
   viewBox="0 0 40 30"
   id="svg2"
   version="1.1"
   inkscape:version="0.91 r13725"
   sodipodi:docname="settings.svg">
  <defs
     id="defs4" />
  <sodipodi:namedview
     id="base"
     pagecolor="#ffffff"
     bordercolor="#666666"
     borderopacity="1.0"
     inkscape:pageopacity="0.0"
     inkscape:pageshadow="2"
     inkscape:zoom="22.58"
     inkscape:cx="18.06"
     inkscape:cy="13.61"
     inkscape:document-units="px"
     inkscape:current-layer="svg2"
     showgrid="true"
     units="px"
     inkscape:window-width="1920"
     inkscape:window-height="1177"
     inkscape:window-x="-8"
     inkscape:window-y="-8"
     inkscape:window-maximized="1">
    <inkscape:grid
       type="xygrid"
       id="grid3354" />
  </sodipodi:namedview>
  <metadata
     id="metadata7">
    <rdf:RDF>
      <cc:Work
         rdf:about="">
        <dc:format>image/svg+xml</dc:format>
        <dc:type
           rdf:resource="http://purl.org/dc/dcmitype/StillImage" />
        <dc:title></dc:title>
      </cc:Work>
    </rdf:RDF>
  </metadata>
  <path
     style="fill:none;fill-opacity:1;fill-rule:evenodd;stroke:#000000;stroke-width:1px;stroke-linecap:butt;stroke-linejoin:miter;stroke-opacity:1"
     d="M 17.88,2.979 14.84,3.938 15.28,7.588 13.52,9.063 10,8 8.529,10.83 11.42,13.1 11.22,15.38 7.979,17.12 8.938,20.16 12.59,19.72 14.06,21.48 13,25 15.83,26.47 18.1,23.58 20.38,23.78 22.12,27.02 25.16,26.06 24.72,22.41 26.48,20.94 30,22 31.47,19.17 28.58,16.9 28.78,14.62 32.02,12.88 31.06,9.84 27.41,10.28 25.94,8.52 27,5 24.17,3.529 21.9,6.42 19.62,6.219 17.88,2.979 Z M 20,11 A 4,4 0 0 1 24,15 4,4 0 0 1 20,19 4,4 0 0 1 16,15 4,4 0 0 1 20,11 Z"
     id="path4803"
     inkscape:connector-curvature="0" />
</svg>
