<?xml version="1.0" encoding="UTF-8" standalone="no"?>
<!-- Created with Inkscape (http://www.inkscape.org/) -->

<svg
   xmlns:dc="http://purl.org/dc/elements/1.1/"
   xmlns:cc="http://creativecommons.org/ns#"
   xmlns:rdf="http://www.w3.org/1999/02/22-rdf-syntax-ns#"
   xmlns:svg="http://www.w3.org/2000/svg"
   xmlns="http://www.w3.org/2000/svg"
   xmlns:sodipodi="http://sodipodi.sourceforge.net/DTD/sodipodi-0.dtd"
   xmlns:inkscape="http://www.inkscape.org/namespaces/inkscape"
   width="40"
   height="30"
   viewBox="0 0 40 30"
   id="svg2"
   version="1.1"
   inkscape:version="0.91 r13725"
   sodipodi:docname="translate.svg">
  <defs
     id="defs4" />
  <sodipodi:namedview
     id="base"
     pagecolor="#ffffff"
     bordercolor="#666666"
     borderopacity="1.0"
     inkscape:pageopacity="0.0"
     inkscape:pageshadow="2"
     inkscape:zoom="10.269598"
     inkscape:cx="21.715635"
     inkscape:cy="12.516416"
     inkscape:document-units="px"
     inkscape:current-layer="svg2"
     showgrid="true"
     units="px"
     inkscape:window-width="1450"
     inkscape:window-height="841"
     inkscape:window-x="78"
     inkscape:window-y="-8"
     inkscape:window-maximized="1">
    <inkscape:grid
       type="xygrid"
       id="grid3354" />
  </sodipodi:namedview>
  <metadata
     id="metadata7">
    <rdf:RDF>
      <cc:Work
         rdf:about="">
        <dc:format>image/svg+xml</dc:format>
        <dc:type
           rdf:resource="http://purl.org/dc/dcmitype/StillImage" />
        <dc:title />
      </cc:Work>
    </rdf:RDF>
  </metadata>
  <path
     id="path4180"
     style="fill:none;fill-rule:evenodd;stroke:#000000;stroke-width:1px;stroke-linecap:butt;stroke-linejoin:miter;stroke-opacity:1"
     d="M 22,17 32,17 M 25,14 29,14 27,16 27,20 25,20 M 27,12 27,11 M 23,14 23,12 31,12 31,14 M 19.85,10.07 C 19.3,10.07 18.85,10.52 18.85,11.07 L 18.85,21.07 C 18.85,21.63 19.3,22.07 19.85,22.07 L 30.73,22.07 34,26 33.35,22.07 33.85,22.07 C 34.41,22.07 34.85,21.63 34.85,21.07 L 34.85,11.07 C 34.85,10.52 34.41,10.07 33.85,10.07 L 19.85,10.07 Z M 11,10 15,10 M 9,14 13,5 17,14 M 13,2 A 8,8 0 0 0 5,10 8,8 0 0 0 6.6,14.79 L 4,20 8.8,16.8 A 8,8 0 0 0 13,18 8,8 0 0 0 18.85,15.44 L 18.85,11.07 C 18.85,10.52 19.3,10.07 19.85,10.07 L 21,10.07 A 8,8 0 0 0 21,10 8,8 0 0 0 13,2 Z"
     inkscape:connector-curvature="0" />
</svg>
